<svg width="25" height="25" viewBox="0 0 25 25" fill="none" xmlns="http://www.w3.org/2000/svg">
<g clip-path="url(#clip0)">
<path d="M22.1921 14.0424C21.5674 13.6223 20.8314 13.7413 20.1796 14.1147C19.5279 14.488 15.7857 17.6631 15.7857 17.6631L12.102 17.6638C11.9307 17.6638 11.7451 17.4725 11.7451 17.3032C11.7451 17.1041 11.92 16.949 12.102 16.949H14.3558C15.1446 16.949 16.0277 16.4389 16.0277 15.5322C16.0277 14.5687 15.1446 14.1154 14.3558 14.1154C12.9872 14.1154 12.721 14.121 12.721 14.121C12.1727 14.121 11.6166 14.0884 11.1882 13.861C10.6171 13.5706 9.95893 13.4062 9.25646 13.4062C8.07712 13.4062 7.02129 13.8731 6.29741 14.6091L2.45312 18.3651L6.73644 22.6156L8.16422 21.1987H15.3937C16.1133 21.1987 16.808 20.9366 17.3455 20.4627L22.2406 15.0136C22.5398 14.7501 22.5226 14.2655 22.1921 14.0424Z" fill="#253947"/>
<path d="M16.7421 7.99538C16.2301 7.18779 15.3582 6.70557 14.4097 6.70557C13.4611 6.70557 12.5892 7.18779 12.0774 7.99538L10.8438 9.94137C10.6391 10.2642 10.5447 10.6372 10.5706 11.0198C10.5966 11.4025 10.7406 11.7589 10.987 12.0506C11.2336 12.3421 11.5594 12.5414 11.9293 12.6268C12.2991 12.7123 12.6783 12.6758 13.0257 12.5214L13.0489 12.511C13.923 12.1302 14.9218 12.1337 15.7936 12.5214C16.0185 12.6214 16.2568 12.672 16.4972 12.672C16.6279 12.672 16.7594 12.6569 16.8897 12.6269C17.2596 12.5415 17.5854 12.3423 17.8321 12.0507C18.0786 11.7592 18.2227 11.4028 18.2487 11.02C18.2748 10.6372 18.1803 10.2643 17.9757 9.94128L16.7421 7.99538Z" fill="#253947"/>
<path d="M11.1709 7.99087C11.5379 7.84833 11.8167 7.54929 11.9559 7.14878C12.0884 6.76768 12.0776 6.33742 11.9253 5.93718C11.7728 5.5372 11.4956 5.21069 11.1446 5.01768C10.7759 4.81501 10.3708 4.78201 10.0044 4.92482C9.26727 5.21139 8.92902 6.13247 9.25044 6.97851C9.50719 7.65189 10.106 8.07697 10.7114 8.07697C10.866 8.07697 11.0211 8.04924 11.1709 7.99087Z" fill="#253947"/>
<path d="M13.5694 6.46818C14.4909 6.46818 15.2406 5.60451 15.2406 4.54291C15.2406 3.48104 14.4909 2.61719 13.5694 2.61719C12.648 2.61719 11.8984 3.48104 11.8984 4.54291C11.8984 5.60451 12.648 6.46818 13.5694 6.46818Z" fill="#253947"/>
<path d="M16.4519 6.94152H16.452C16.5938 6.98909 16.7384 7.01182 16.8824 7.01182C17.5544 7.01182 18.2093 6.51723 18.4592 5.75712C18.6031 5.31958 18.5936 4.85693 18.4325 4.4545C18.264 4.03319 17.9516 3.7274 17.5528 3.59337C17.154 3.45934 16.7227 3.51525 16.3382 3.75066C15.971 3.97553 15.6896 4.3404 15.5458 4.77794C15.2425 5.70095 15.649 6.67153 16.4519 6.94152Z" fill="#253947"/>
<path d="M19.9696 6.71721L19.9693 6.71695C19.3339 6.24228 18.3835 6.44802 17.8507 7.17582C17.3183 7.90398 17.4016 8.8829 18.0361 9.35792C18.2675 9.53127 18.5409 9.61413 18.8207 9.61413C19.3085 9.61413 19.8159 9.3624 20.1551 8.89949C20.6874 8.17133 20.6042 7.19241 19.9696 6.71721Z" fill="#253947"/>
</g>
<defs>
<clipPath id="clip0">
<rect width="24" height="24" fill="white" transform="translate(0.453125 0.449219)"/>
</clipPath>
</defs>
</svg>
