<svg width="25" height="25" viewBox="0 0 25 25" fill="none" xmlns="http://www.w3.org/2000/svg">
<g clip-path="url(#clip0)">
<path d="M5.17198 20.7251C5.17198 20.7251 5.15421 21.1722 5.59092 21.1722C6.13423 21.1722 10.6324 21.1663 10.6324 21.1663L10.6398 17.0352C10.6398 17.0352 10.5687 16.3543 11.2297 16.3543H13.3215C14.1031 16.3543 14.055 17.0352 14.055 17.0352L14.0461 21.1529C14.0461 21.1529 18.3111 21.1529 18.981 21.1529C19.5354 21.1529 19.5102 20.5963 19.5102 20.5963V12.9805L12.5554 6.79395L5.17198 12.9805V20.7251Z" fill="#253947"/>
<path d="M2.45312 12.4028C2.45312 12.4028 3.08007 13.5583 4.4472 12.4028L12.6174 5.49091L20.2777 12.3599C21.8602 13.5013 22.4531 12.3599 22.4531 12.3599L12.6174 3.4502L2.45312 12.4028Z" fill="#253947"/>
<path d="M20.0915 5.4751H18.1211L18.1292 7.86444L20.0915 9.52913V5.4751Z" fill="#253947"/>
</g>
<defs>
<clipPath id="clip0">
<rect width="24" height="24" fill="white" transform="translate(0.453125 0.449219)"/>
</clipPath>
</defs>
</svg>
