<svg width="25" height="25" viewBox="0 0 25 25" fill="none" xmlns="http://www.w3.org/2000/svg">
<path d="M11.3819 12.6282C11.5448 12.7406 11.642 12.9258 11.642 13.1237V13.5363H13.1532V13.1237C13.1532 12.9258 13.2505 12.7406 13.4134 12.6282C13.8995 12.293 14.1899 11.7409 14.1899 11.1516C14.1899 10.1634 13.3859 9.35938 12.3977 9.35938C11.4093 9.35938 10.6055 10.1634 10.6055 11.1516C10.6055 11.7409 10.8957 12.293 11.3819 12.6282Z" fill="#253947"/>
<path d="M11.6406 14.7928C11.6406 15.2094 11.9795 15.5484 12.3963 15.5484C12.8129 15.5484 13.1518 15.2094 13.1518 14.7928V14.7412H11.6406V14.7928Z" fill="#253947"/>
<path d="M6.45312 6.80176V18.1004H18.3364V6.80176H6.45312ZM14.3541 13.4196V14.7934C14.3541 15.8738 13.475 16.7529 12.3947 16.7529C11.3142 16.7529 10.4352 15.8739 10.4352 14.7934V13.4196C9.7809 12.8536 9.3985 12.0281 9.3985 11.1533C9.3985 9.5013 10.7425 8.15725 12.3947 8.15725C14.0467 8.15725 15.3907 9.5013 15.3907 11.1533C15.3907 12.0281 15.0083 12.8536 14.3541 13.4196Z" fill="#253947"/>
<path d="M6.45312 19.3022V19.7106C6.45312 21.2207 7.68181 22.4493 9.19188 22.4493H15.5976C17.1077 22.4493 18.3364 21.2207 18.3364 19.7106V19.3022H6.45312Z" fill="#253947"/>
<path d="M18.3364 5.59632V5.18798C18.3364 3.67791 17.1077 2.44922 15.5976 2.44922H9.19188C7.68181 2.44922 6.45312 3.67791 6.45312 5.18798V5.59632H18.3364Z" fill="#253947"/>
</svg>
