<svg width="25" height="25" viewBox="0 0 25 25" fill="none" xmlns="http://www.w3.org/2000/svg">
<path d="M4.45312 16.4492C4.45312 17.3292 4.84312 18.1192 5.45312 18.6692V20.4492C5.45312 20.9992 5.90313 21.4492 6.45312 21.4492H7.45312C8.00312 21.4492 8.45312 20.9992 8.45312 20.4492V19.4492H16.4531V20.4492C16.4531 20.9992 16.9031 21.4492 17.4531 21.4492H18.4531C19.0031 21.4492 19.4531 20.9992 19.4531 20.4492V18.6692C20.0631 18.1192 20.4531 17.3292 20.4531 16.4492V6.44922C20.4531 2.94922 16.8731 2.44922 12.4531 2.44922C8.03312 2.44922 4.45312 2.94922 4.45312 6.44922V16.4492ZM7.95312 17.4492C7.12313 17.4492 6.45312 16.7792 6.45312 15.9492C6.45312 15.1192 7.12313 14.4492 7.95312 14.4492C8.78312 14.4492 9.45312 15.1192 9.45312 15.9492C9.45312 16.7792 8.78312 17.4492 7.95312 17.4492ZM16.9531 17.4492C16.1231 17.4492 15.4531 16.7792 15.4531 15.9492C15.4531 15.1192 16.1231 14.4492 16.9531 14.4492C17.7831 14.4492 18.4531 15.1192 18.4531 15.9492C18.4531 16.7792 17.7831 17.4492 16.9531 17.4492ZM18.4531 11.4492H6.45312V6.44922H18.4531V11.4492Z" fill="#253947"/>
</svg>
