<svg width="25" height="25" viewBox="0 0 25 25" fill="none" xmlns="http://www.w3.org/2000/svg">
<path d="M22.6231 9.62109C22.6231 5.75109 19.4931 2.62109 15.6231 2.62109C11.7531 2.62109 8.62313 5.75109 8.62313 9.62109C8.62313 13.0911 11.1431 15.9611 14.4531 16.5111V20.4511H6.45312V17.4511H7.45312V13.4511C7.45312 12.9011 7.00313 12.4511 6.45312 12.4511H3.45312C2.90312 12.4511 2.45312 12.9011 2.45312 13.4511V17.4511H3.45312V22.4511H19.4531V20.4511H16.4531V16.5711C19.9231 16.1611 22.6231 13.2111 22.6231 9.62109ZM4.95312 11.4511C5.78312 11.4511 6.45312 10.7811 6.45312 9.95109C6.45312 9.12109 5.78312 8.45109 4.95312 8.45109C4.12313 8.45109 3.45312 9.12109 3.45312 9.95109C3.45312 10.7811 4.12313 11.4511 4.95312 11.4511Z" fill="#253947"/>
</svg>
