<svg width="25" height="25" viewBox="0 0 25 25" fill="none" xmlns="http://www.w3.org/2000/svg">
<g clip-path="url(#clip0)">
<path d="M12.8149 4.44971C12.832 4.87516 12.849 5.30061 12.8662 5.72606C12.5349 5.72606 12.3694 5.72606 12.0382 5.72606C12.0553 5.30061 12.0724 4.87516 12.0894 4.44971C11.4177 4.44971 10.7461 4.44971 10.0744 4.44971C8.72414 9.57775 7.37366 14.7057 6.02344 19.8338C7.83943 19.8338 9.65541 19.8338 11.4714 19.8338C11.4884 19.4083 11.5055 18.9828 11.5227 18.5574C12.1423 18.5574 12.762 18.5574 13.3817 18.5574C13.3989 18.9829 13.4159 19.4083 13.433 19.8338C15.249 19.8338 17.0649 19.8338 18.8809 19.8338C17.5306 14.7057 16.1802 9.57779 14.8299 4.44971C14.1583 4.44971 13.4866 4.44971 12.8149 4.44971ZM11.9613 7.63713C12.2885 7.63713 12.6157 7.63695 12.943 7.63704C12.9905 8.82008 13.038 10.0032 13.0856 11.1862C12.6633 11.1862 12.241 11.1862 11.8187 11.1862C11.8664 10.0032 11.9138 8.82017 11.9613 7.63713ZM11.5994 16.6463C11.6468 15.4633 11.6944 14.2803 11.742 13.0973C12.2154 13.0973 12.6889 13.0972 13.1623 13.0972C13.2098 14.2802 13.2574 15.4633 13.3049 16.6463C12.7364 16.6463 12.1679 16.6463 11.5994 16.6463Z" fill="#253947"/>
<path d="M16.1547 4.44971C15.8804 4.44971 15.7431 4.44971 15.4688 4.44971C17.1797 9.57775 18.8903 14.7057 20.6014 19.8338C21.2196 19.8338 21.8378 19.8338 22.456 19.8338C20.3557 14.7057 18.2552 9.57775 16.1547 4.44971Z" fill="#253947"/>
<path d="M8.75441 4.44971C6.65394 9.57779 4.55342 14.7057 2.45312 19.8338C3.07137 19.8338 3.68956 19.8338 4.3078 19.8338C6.01866 14.7057 7.72947 9.57779 9.44041 4.44971C9.16603 4.44971 9.02879 4.44971 8.75441 4.44971Z" fill="#253947"/>
</g>
<defs>
<clipPath id="clip0">
<rect width="24" height="24" fill="white" transform="translate(0.453125 0.449219)"/>
</clipPath>
</defs>
</svg>
