<svg width="25" height="25" viewBox="0 0 25 25" fill="none" xmlns="http://www.w3.org/2000/svg">
<g clip-path="url(#clip0)">
<path d="M19.8789 7.99609H7.02732C6.68214 7.99609 6.40234 8.27589 6.40234 8.62107C6.40234 8.96625 6.68214 9.24605 7.02732 9.24605H7.86854L9.10025 21.885C9.13146 22.2051 9.40059 22.4493 9.7223 22.4493H17.1839C17.5056 22.4493 17.7748 22.2051 17.806 21.885L19.0377 9.24605H19.8789C20.2241 9.24605 20.5038 8.96625 20.5038 8.62107C20.5038 8.27589 20.2241 7.99609 19.8789 7.99609ZM11.6052 18.9669C11.2607 18.9986 10.9571 18.7452 10.9254 18.402L10.3168 11.8096C10.2851 11.4659 10.538 11.1616 10.8817 11.1298C11.2258 11.0982 11.5298 11.3511 11.5615 11.6947L12.1701 18.2872C12.2018 18.6309 11.9489 18.9352 11.6052 18.9669ZM14.0781 18.3446C14.0781 18.6898 13.7983 18.9696 13.4531 18.9696C13.108 18.9696 12.8282 18.6898 12.8282 18.3446V11.7522C12.8282 11.407 13.108 11.1272 13.4531 11.1272C13.7983 11.1272 14.0781 11.407 14.0781 11.7522V18.3446ZM16.725 11.8096L16.1164 18.402C16.0865 18.7262 15.8141 18.9696 15.4948 18.9696C15.1264 18.9696 14.838 18.6536 14.8718 18.2871L15.4803 11.6947C15.512 11.351 15.8162 11.0982 16.1601 11.1298C16.5037 11.1616 16.7566 11.4659 16.725 11.8096Z" fill="#253947"/>
<path d="M9.17652 6.49859C9.13016 6.57776 9.0861 6.66042 9.04379 6.74569H14.7336C14.0601 6.10579 13.2072 5.50558 12.3145 5.24684L11.9812 2.98352C11.9112 2.50823 11.3515 2.28624 10.9748 2.58471L9.80392 3.51225L8.31613 3.64518C7.83872 3.68783 7.5833 4.23289 7.86052 4.62721L9.17652 6.49859Z" fill="#253947"/>
<path d="M16.4343 6.74564H17.9288C17.8747 6.63924 17.8176 6.53745 17.7575 6.44061L19.0245 4.53576C19.2901 4.13648 19.0242 3.59627 18.5435 3.56592L17.0528 3.47162L15.8583 2.57478C15.4748 2.2869 14.9204 2.52146 14.8626 2.99961L14.6172 5.03078C15.2974 5.51795 15.9186 6.11125 16.4343 6.74564Z" fill="#253947"/>
<path d="M6.79464 11.1172C6.63148 11.1237 6.47485 11.1941 6.36099 11.3171L5.34376 12.4159L3.90502 12.8307C3.44485 12.9634 3.29802 13.5461 3.64367 13.8805L5.14709 15.3346C4.50957 16.9208 4.81132 19.3291 5.6434 20.6792C6.16713 21.529 6.99034 22.0909 7.9148 22.3247C7.85269 22.0976 7.95663 23.0404 6.79464 11.1172Z" fill="#253947"/>
</g>
<defs>
<clipPath id="clip0">
<rect width="24" height="24" fill="white" transform="translate(0.453125 0.449219)"/>
</clipPath>
</defs>
</svg>
