<svg width="25" height="25" viewBox="0 0 25 25" fill="none" xmlns="http://www.w3.org/2000/svg">
<path d="M13.4483 3.13837C12.9002 2.20345 12.3199 2.23569 11.7719 3.13837C9.25727 6.87803 5.45312 12.4875 5.45312 15.2923C5.45312 17.2588 6.25909 19.0642 7.54863 20.3537C8.83817 21.6433 10.6435 22.4492 12.6101 22.4492C14.5766 22.4492 16.382 21.6433 17.6715 20.3537C18.961 19.0642 19.767 17.2588 19.767 15.2923C19.767 12.4553 15.9629 6.87803 13.4483 3.13837ZM17.7682 18.4839C17.2524 19.3221 16.5109 20.0636 15.6082 20.5794C15.1891 20.8051 14.6733 20.6761 14.4477 20.257C14.1898 19.8057 14.3509 19.2898 14.77 19.0642C15.4148 18.7096 15.9306 18.1937 16.3175 17.5812C16.7044 16.9687 16.93 16.2594 16.9623 15.5179C16.9945 15.0344 17.3814 14.6797 17.8649 14.712C18.3485 14.7442 18.7031 15.1311 18.6709 15.6147C18.6064 16.6463 18.284 17.6134 17.7682 18.4839Z" fill="#253947"/>
</svg>
