<svg width="36" height="36" viewBox="0 0 36 36" fill="none" xmlns="http://www.w3.org/2000/svg">
<rect width="36" height="36" rx="5" fill="#64B5F6"/>
<path d="M27.6698 24.1711L22.3698 18.8711H21.3798L18.8398 21.4111V22.4011L24.1398 27.7011C24.5298 28.0911 25.1598 28.0911 25.5498 27.7011L27.6698 25.5811C28.0598 25.2011 28.0598 24.5611 27.6698 24.1711Z" fill="#E3F2FD"/>
<path d="M23.34 16.19L24.75 14.78L26.87 16.9C28.04 15.73 28.04 13.83 26.87 12.66L23.33 9.12L21.92 10.53V7.71L21.22 7L17.68 10.54L18.39 11.25H21.22L19.81 12.66L20.87 13.72L17.98 16.61L13.85 12.48V11.06L10.83 8.04L8 10.87L11.03 13.9H12.44L16.57 18.03L15.72 18.88H13.6L8.3 24.18C7.91 24.57 7.91 25.2 8.3 25.59L10.42 27.71C10.81 28.1 11.44 28.1 11.83 27.71L17.13 22.41V20.29L22.28 15.14L23.34 16.19Z" fill="#E3F2FD"/>
</svg>
