<svg width="36" height="36" viewBox="0 0 36 36" fill="none" xmlns="http://www.w3.org/2000/svg">
<rect width="36" height="36" rx="5" fill="#4CAF50"/>
<path d="M24.2845 13.5813C23.9104 10.6775 21.5011 8.39143 18.4476 8.04289C18.1847 8.01435 17.9203 8.00005 17.6556 8C14.957 8.00395 12.5272 9.55537 11.501 11.9296C10.4747 14.3039 11.0547 17.0325 12.9699 18.841C13.9884 19.7688 14.5717 21.0474 14.5883 22.3888V23.1215H20.7414V22.385C20.7461 21.069 21.3089 19.8105 22.3023 18.8946C23.8027 17.5175 24.5367 15.5501 24.2845 13.5813Z" fill="#EDF7ED"/>
<path d="M17.6649 28C18.3166 27.9993 18.8974 27.6087 19.1154 27.0244H16.2146C16.4325 27.6087 17.0132 27.9993 17.6649 28Z" fill="#EDF7ED"/>
<path d="M15.1007 25.5609C15.1011 25.8302 15.3304 26.0483 15.6134 26.0487H19.7155C19.9986 26.0483 20.2279 25.8302 20.2283 25.5609V24.0976H15.1007V25.5609Z" fill="#EDF7ED"/>
</svg>
