<svg width="36" height="36" viewBox="0 0 36 36" fill="none" xmlns="http://www.w3.org/2000/svg">
<rect width="36" height="36" rx="5" fill="#4CAF50"/>
<path fill-rule="evenodd" clip-rule="evenodd" d="M25.9379 12.242L19.0621 8.29207C18.4472 7.90264 17.6087 7.90264 16.882 8.29207L10.0621 12.242C9.3913 12.6314 9 13.2434 9 14.0779V21.9777C9 22.7566 9.4472 23.4242 10.0621 23.8136L16.9379 27.7079C17.6646 28.0974 18.5031 28.0974 19.118 27.7079L25.9379 23.758C26.6646 23.3686 27 22.7566 27 21.9221V14.0779C27 13.299 26.6646 12.6314 25.9379 12.242ZM17.1961 23.7018C17.652 24.0985 18.3537 24.0985 18.8095 23.7075L18.8695 23.6565L18.9057 23.6254C22.0341 20.9399 24.0812 19.1826 23.9975 16.9924C23.9615 16.0291 23.4397 15.1054 22.5941 14.5614C21.0107 13.5357 19.0554 14.0174 17.9998 15.1847C16.9442 14.0174 14.989 13.5414 13.4056 14.5614C12.5599 15.1054 12.0381 16.0291 12.0021 16.9924C11.9242 19.1911 13.9814 20.9534 17.1302 23.6451L17.1961 23.7018Z" fill="#EDF7ED"/>
</svg>
