<svg width="36" height="36" viewBox="0 0 36 36" fill="none" xmlns="http://www.w3.org/2000/svg">
<rect width="36" height="36" rx="5" fill="#64B5F6"/>
<path d="M18 14.9C17.2767 14.9 16.583 15.1739 16.0715 15.6615C15.5601 16.1491 15.2727 16.8104 15.2727 17.5C15.2727 18.1896 15.5601 18.8509 16.0715 19.3385C16.583 19.8261 17.2767 20.1 18 20.1C18.7233 20.1 19.417 19.8261 19.9285 19.3385C20.4399 18.8509 20.7273 18.1896 20.7273 17.5C20.7273 16.8104 20.4399 16.1491 19.9285 15.6615C19.417 15.1739 18.7233 14.9 18 14.9ZM18 21.8333C16.7945 21.8333 15.6383 21.3768 14.7859 20.5641C13.9334 19.7515 13.4545 18.6493 13.4545 17.5C13.4545 16.3507 13.9334 15.2485 14.7859 14.4359C15.6383 13.6232 16.7945 13.1667 18 13.1667C19.2055 13.1667 20.3617 13.6232 21.2141 14.4359C22.0666 15.2485 22.5455 16.3507 22.5455 17.5C22.5455 18.6493 22.0666 19.7515 21.2141 20.5641C20.3617 21.3768 19.2055 21.8333 18 21.8333ZM18 11C13.4545 11 9.57273 13.6953 8 17.5C9.57273 21.3047 13.4545 24 18 24C22.5455 24 26.4273 21.3047 28 17.5C26.4273 13.6953 22.5455 11 18 11Z" fill="#E3F2FD"/>
</svg>
