<svg width="36" height="36" viewBox="0 0 36 36" fill="none" xmlns="http://www.w3.org/2000/svg">
<rect width="36" height="36" rx="5" fill="#64B5F6"/>
<path d="M26.3636 16.2384L25.9187 15.0565L25.1298 12.9608C24.4525 11.162 22.8371 10 21.0135 10H15.9865C14.1632 10 12.5475 11.162 11.8702 12.9608L11.0813 15.0565L10.6364 16.2384C9.68162 16.624 9 17.5981 9 18.7479V20.7667C9 21.4446 9.24383 22.0566 9.63333 22.5301V24.8042C9.63333 25.5473 10.2006 26.15 10.9 26.15H12.1667C12.8661 26.15 13.4333 25.5473 13.4333 24.8042V23.4583H23.5667V24.8042C23.5667 25.5473 24.1339 26.15 24.8333 26.15H26.1C26.7994 26.15 27.3667 25.5473 27.3667 24.8042V22.5301C27.7562 22.057 28 21.445 28 20.7667V18.7479C28 17.5981 27.3184 16.624 26.3636 16.2384ZM14.2222 13.9605C14.5108 13.1943 15.2094 12.6917 15.9865 12.6917H21.0135C21.7906 12.6917 22.4892 13.1943 22.7778 13.9605L23.5667 16.0562H13.4333L14.2222 13.9605ZM12.1667 20.7583C11.4067 20.7583 10.9 20.2216 10.9 19.4166C10.9 18.6116 11.4067 18.075 12.1667 18.075C12.9267 18.075 14.0667 19.2825 14.0667 20.0874C14.0667 20.8924 12.9267 20.7583 12.1667 20.7583ZM24.8333 20.7583C24.0733 20.7583 22.9333 20.8924 22.9333 20.0874C22.9333 19.2825 24.0733 18.075 24.8333 18.075C25.5933 18.075 26.1 18.6116 26.1 19.4166C26.1 20.2216 25.5933 20.7583 24.8333 20.7583Z" fill="#E3F2FD"/>
</svg>
