<svg width="24" height="24" viewBox="0 0 24 24" fill="none" xmlns="http://www.w3.org/2000/svg">
<path d="M10.0757 1.09067C11.2694 0.414116 12.7306 0.414115 13.9243 1.09067L17.22 2.95869L20.4856 4.87888C21.6684 5.57432 22.399 6.83979 22.4099 8.21179L22.44 12L22.4099 15.7882C22.399 17.1602 21.6684 18.4257 20.4856 19.1211L17.22 21.0413L13.9243 22.9093C12.7306 23.5859 11.2694 23.5859 10.0757 22.9093L6.78 21.0413L3.51437 19.1211C2.33164 18.4257 1.60102 17.1602 1.59011 15.7882L1.56 12L1.59011 8.21179C1.60102 6.83979 2.33164 5.57432 3.51437 4.87888L6.78 2.95869L10.0757 1.09067Z"/>
<path d="M8.38536 15.3085L12.232 12.5952C12.6054 12.3285 12.6054 11.7685 12.232 11.5085L8.38536 8.78852C7.9387 8.48185 7.33203 8.79518 7.33203 9.33518V14.7619C7.33203 15.3019 7.9387 15.6152 8.38536 15.3085ZM11.9454 9.33518V14.7619C11.9454 15.3019 12.5521 15.6152 12.9987 15.3085L16.8454 12.5952C17.2187 12.3285 17.2187 11.7685 16.8454 11.5085L12.9987 8.79518C12.5521 8.48185 11.9454 8.79518 11.9454 9.33518Z" fill="white"/>
</svg>
