<svg width="24" height="24" viewBox="0 0 24 24" fill="none" xmlns="http://www.w3.org/2000/svg">
<path d="M21.1667 11.5083L17 11.5C16.5417 11.5 16.1667 11.875 16.1667 12.3333V19.8333C16.1667 20.2917 16.5417 20.6667 17 20.6667H21.1667C21.625 20.6667 22 20.2917 22 19.8333V12.3333C22 11.875 21.625 11.5083 21.1667 11.5083ZM18.6667 4H3.66667C2.74167 4 2 4.74167 2 5.66667V15.6667C2 16.5833 2.74167 17.3333 3.66667 17.3333H9.5V19H7.83333V20.6667H14.5V19H12.8333V17.3333H15V15.5C15 15.5 15 13.2284 15 11.5C15 9.77159 16 10 18.5 10C19.1697 10 20.3333 10 20.3333 10V5.66667C20.3333 4.74167 19.5833 4 18.6667 4Z" fill="#1976D2"/>
</svg>
