<svg width="24" height="24" viewBox="0 0 24 24" fill="none" xmlns="http://www.w3.org/2000/svg">
<path d="M10.1223 3C11.4173 3 12.4532 4.03597 12.4532 5.33094C12.4532 5.84892 12.1942 6.36691 11.9353 6.75539H17.2446V12.0647C17.6331 11.6763 18.1511 11.5468 18.6691 11.5468C19.964 11.5468 21 12.5827 21 13.8777C21 15.1727 19.964 16.2086 18.6691 16.2086C18.1511 16.2086 17.6331 15.9496 17.2446 15.6906V21H11.4173C12.0647 20.6115 12.4532 19.8345 12.4532 19.0576C12.4532 17.7626 11.4173 16.7266 10.1223 16.7266C8.82734 16.7266 7.79137 17.7626 7.79137 19.0576C7.79137 19.8345 8.17986 20.482 8.82734 21H3V15.1727C3.38849 15.8201 4.16547 16.2086 4.94245 16.2086C6.23741 16.2086 7.27338 15.1727 7.27338 13.8777C7.27338 12.5827 6.23741 11.5468 4.94245 11.5468C4.16547 11.5468 3.51799 11.9353 3 12.5827V6.75539H8.30935C7.92086 6.36691 7.79137 5.84892 7.79137 5.33094C7.79137 4.03597 8.82734 3 10.1223 3Z" fill="#1976D2"/>
</svg>
