<svg width="28" height="28" viewBox="0 0 28 28" fill="none" xmlns="http://www.w3.org/2000/svg">
<path d="M23.7876 4.38208H4.21241C3.12717 4.38208 2.25 5.30523 2.25 6.44307V21.557C2.25 22.6948 3.12717 23.618 4.21241 23.618H23.7876C24.8728 23.618 25.75 22.6948 25.75 21.557V6.44307C25.75 5.30523 24.8728 4.38208 23.7876 4.38208ZM4.4572 6.44307H23.5428C23.6774 6.44307 23.7876 6.559 23.7876 6.70069V8.50406H4.21241V6.70069C4.21241 6.559 4.32257 6.44307 4.4572 6.44307ZM23.5428 21.557H4.4572C4.32257 21.557 4.21241 21.4411 4.21241 21.2994V14H23.7876V21.2994C23.7876 21.4411 23.6774 21.557 23.5428 21.557ZM10.0833 17.2633V18.9807C10.0833 19.2641 9.86302 19.496 9.59375 19.496H6.65625C6.38698 19.496 6.16667 19.2641 6.16667 18.9807V17.2633C6.16667 16.9799 6.38698 16.748 6.65625 16.748H9.59375C9.86302 16.748 10.0833 16.9799 10.0833 17.2633ZM17.9167 17.2633V18.9807C17.9167 19.2641 17.6964 19.496 17.4271 19.496H11.8785C11.6092 19.496 11.3889 19.2641 11.3889 18.9807V17.2633C11.3889 16.9799 11.6092 16.748 11.8785 16.748H17.4271C17.6964 16.748 17.9167 16.9799 17.9167 17.2633Z" fill="#E3F2FD"/>
</svg>
