<svg width="24" height="24" viewBox="0 0 24 24" fill="none" xmlns="http://www.w3.org/2000/svg">
<g clip-path="url(#clip0)">
<path d="M9.95079 0.533337C11.2054 -0.177778 12.7413 -0.177779 13.9959 0.533336L17.46 2.4968L20.8925 4.51508C22.1356 5.24605 22.9036 6.57617 22.9151 8.01826L22.9467 12L22.9151 15.9817C22.9036 17.4238 22.1356 18.754 20.8925 19.4849L17.46 21.5032L13.9959 23.4667C12.7413 24.1778 11.2054 24.1778 9.9508 23.4667L6.48668 21.5032L3.05422 19.4849C1.81106 18.754 1.04312 17.4238 1.03165 15.9817L1 12L1.03165 8.01826C1.04312 6.57617 1.81106 5.24605 3.05421 4.51508L6.48668 2.4968L9.95079 0.533337Z" />
<path d="M11.993 5C8.129 5 5 8.136 5 12C5 15.864 8.129 19 11.993 19C15.864 19 19 15.864 19 12C19 8.136 15.864 5 11.993 5ZM9.55 9.2C10.131 9.2 10.6 9.669 10.6 10.25C10.6 10.831 10.131 11.3 9.55 11.3C8.969 11.3 8.5 10.831 8.5 10.25C8.5 9.669 8.969 9.2 9.55 9.2ZM12 16.2C10.404 16.2 9.046 15.038 8.5 13.4H15.5C14.954 15.038 13.596 16.2 12 16.2ZM14.45 11.3C13.869 11.3 13.4 10.831 13.4 10.25C13.4 9.669 13.869 9.2 14.45 9.2C15.031 9.2 15.5 9.669 15.5 10.25C15.5 10.831 15.031 11.3 14.45 11.3Z" fill="white"/>
</g>
<defs>
<clipPath id="clip0">
<rect width="24" height="24" fill="white"/>
</clipPath>
</defs>
</svg>
