<svg width="28" height="28" viewBox="0 0 28 28" fill="none" xmlns="http://www.w3.org/2000/svg">
<path d="M20.8865 18.3641C18.6057 17.4869 17.9477 17.224 17.7285 17.1799C17.6844 17.1799 17.5971 17.1799 17.553 17.224L15.4914 18.6271C15.4477 18.6713 15.4041 18.7149 15.4041 18.8027C15.4041 18.8463 15.4041 18.9341 15.4477 18.9783L16.5005 20.0308L15.3163 21.2149C15.2284 21.3029 15.2284 21.4343 15.3163 21.5221L16.3686 22.8816L14.9214 25.7765C14.8777 25.864 14.8777 25.9081 14.9214 25.9959C14.9655 26.0395 15.0528 26.0832 15.097 26.0832H23.8689C24.0005 26.0832 24.0883 25.9959 24.0883 25.864C24.1759 24.8552 24.4827 19.7676 20.8865 18.3641Z" fill="#E3F2FD"/>
<path d="M11.6316 22.8377L12.6843 21.4777C12.772 21.3904 12.7282 21.2583 12.6843 21.171L11.5 19.9868L12.5528 18.9338C12.5964 18.8902 12.6404 18.8024 12.5964 18.7588C12.5964 18.7147 12.5528 18.6269 12.5089 18.5832L10.4474 17.1797C10.4035 17.1357 10.3159 17.1357 10.272 17.1357C10.0966 17.1797 9.43881 17.4429 7.11414 18.3201C3.51765 19.7674 3.82449 24.855 3.91237 25.8638C3.91237 25.9956 4.00014 26.083 4.13155 26.083H12.9036C12.9913 26.083 13.035 26.0393 13.079 25.9957C13.1229 25.9516 13.1229 25.8638 13.079 25.7763L11.6316 22.8377Z" fill="#E3F2FD"/>
<path d="M15.4909 22.7942L14.307 21.3033L15.4472 20.1626C15.4909 20.1189 15.4909 20.0752 15.4909 19.9874C15.4909 19.8995 15.4472 19.8558 15.4472 19.8117L14.1753 18.5399C14.0878 18.4522 13.956 18.4522 13.8684 18.5399L12.5963 19.8117C12.5087 19.8994 12.5087 20.0311 12.5963 20.1188L13.7367 21.2589L12.5526 22.7504C12.5088 22.7941 12.5088 22.8819 12.5088 22.9697L13.8246 25.8644C13.8685 25.9522 13.956 25.9962 14.0439 25.9962C14.1314 25.9962 14.2192 25.9522 14.2632 25.8644L15.5787 22.9697C15.5787 22.9698 15.5787 22.882 15.4909 22.7942Z" fill="#E3F2FD"/>
<path d="M18.5619 9.76773C17.4216 9.15373 15.7111 8.80298 14.0008 8.80298C12.2902 8.80298 10.5797 9.15373 9.43945 9.76773C9.39542 9.81165 9.35156 9.8555 9.35156 9.89936C9.35156 9.94316 9.35156 10.0309 9.39548 10.0748C10.3606 11.5661 12.9482 11.6099 13.4743 11.6099H14.6145C15.1409 11.6099 17.7288 11.522 18.6938 10.0748C18.7375 10.0309 18.7375 9.94316 18.7375 9.89936C18.6497 9.8555 18.606 9.76773 18.5619 9.76773Z" fill="#E3F2FD"/>
<path d="M14.001 16.5213C16.9395 16.4777 19.3077 14.1091 19.3077 11.1706C19.3077 11.0828 19.3077 10.9513 19.3077 10.8196C19.3077 10.732 19.264 10.6442 19.1762 10.6442C19.0885 10.6002 19.0007 10.6442 18.957 10.6881C17.6848 11.9599 15.3604 12.0917 14.6587 12.0917H13.4745C12.7728 12.0917 10.4482 12.0039 9.17625 10.6881C9.13233 10.6442 9.04479 10.6002 8.95707 10.6442C8.86919 10.6881 8.82555 10.732 8.82555 10.8196C8.82555 10.9513 8.82555 11.0388 8.82555 11.1706C8.69381 14.1091 11.0623 16.4776 14.001 16.5213Z" fill="#E3F2FD"/>
<path d="M8.29772 7.96913C8.38549 8.01304 8.47304 8.0569 8.56092 8.01304C9.35024 7.57441 11.8064 6.829 13.9555 6.829C16.1482 6.829 18.6047 7.57446 19.3942 8.01304C19.4379 8.01304 19.482 8.0569 19.482 8.0569C19.5256 8.0569 19.5697 8.0569 19.6134 8.01304C20.1398 7.53055 20.5343 7.1798 20.6662 7.04823C20.7537 6.96046 20.7537 6.82894 20.7099 6.74117C20.6662 6.6972 20.6221 6.65329 20.5784 6.56574C20.3592 6.34645 20.052 5.99537 19.9206 5.42533L19.8326 5.11816C19.7449 4.32884 19.7012 4.02178 18.9117 3.93412H18.6926C17.859 3.84635 16.5432 3.71483 15.4905 2.79371C14.6132 2.00439 14.2627 1.9165 13.9995 1.9165C13.7362 1.9165 13.3854 2.00439 12.5083 2.79371C11.4556 3.71483 10.1399 3.84635 9.30639 3.93412H9.08704C8.29772 4.02178 8.20984 4.32884 8.07843 5.07453L7.99055 5.38147C7.85909 5.95173 7.55192 6.25868 7.33263 6.52188C7.28894 6.56574 7.24508 6.65329 7.20117 6.6972C7.1134 6.78508 7.15726 6.91649 7.24508 7.00437C7.42051 7.13578 7.77126 7.48686 8.29772 7.96913Z" fill="#E3F2FD"/>
<path d="M19.0882 9.24157C19.1322 9.19771 19.1759 9.1538 19.2196 9.06603L19.3073 8.62739C19.3073 8.53974 19.2637 8.40811 19.1759 8.40811C18.5618 8.14513 16.3687 7.35547 14.0445 7.35547C11.676 7.35547 9.52677 8.14513 8.91271 8.40811C8.82516 8.45196 8.78125 8.53974 8.78125 8.62739L8.8688 9.06603C8.8688 9.1538 8.91265 9.19766 9.00054 9.24157C9.0444 9.24157 9.0444 9.28531 9.08803 9.28531C9.13194 9.28531 9.1758 9.28531 9.1758 9.24157C10.4477 8.62745 12.1583 8.27659 14.0882 8.27659C15.9741 8.27659 17.7285 8.62745 19.0002 9.24157C18.9568 9.24157 19.0445 9.24157 19.0882 9.24157Z" fill="#E3F2FD"/>
</svg>
