<svg width="55" height="59" viewBox="0 0 55 59" fill="none" xmlns="http://www.w3.org/2000/svg">
<g filter="url(#filter0_ddd)">
<path fill-rule="evenodd" clip-rule="evenodd" d="M29.5652 9.56954L42.9348 17.1634C44.3478 17.9228 45 19.2246 45 20.7434V36.0396C45 37.6669 44.3478 38.8602 42.9348 39.6196L29.5652 47.4305C28.3696 48.1898 26.7391 48.1898 25.3261 47.4305L12.0652 39.7281C10.8696 38.9687 10 37.6669 10 36.1481V20.8519C10 19.2246 10.7609 18.0313 12.0652 17.2719L25.3261 9.56954C26.7391 8.81015 28.3696 8.81015 29.5652 9.56954Z" fill="#1976D2"/>
</g>
<path fill-rule="evenodd" clip-rule="evenodd" d="M27.5781 38.9464C33.403 38.9464 38.125 34.2694 38.125 28.5C38.125 22.7306 33.403 18.0536 27.5781 18.0536C21.7532 18.0536 17.0312 22.7306 17.0312 28.5C17.0312 34.2694 21.7532 38.9464 27.5781 38.9464ZM26.9189 21.971V28.8842L33.1906 32.3352L33.8309 31.1938L28.2373 28.1158V21.971H26.9189Z" fill="white"/>
<defs>
<filter id="filter0_ddd" x="0" y="0" width="55" height="59" filterUnits="userSpaceOnUse" color-interpolation-filters="sRGB">
<feFlood flood-opacity="0" result="BackgroundImageFix"/>
<feColorMatrix in="SourceAlpha" type="matrix" values="0 0 0 0 0 0 0 0 0 0 0 0 0 0 0 0 0 0 127 0"/>
<feOffset dy="2"/>
<feGaussianBlur stdDeviation="2"/>
<feColorMatrix type="matrix" values="0 0 0 0 0 0 0 0 0 0 0 0 0 0 0 0 0 0 0.2 0"/>
<feBlend mode="normal" in2="BackgroundImageFix" result="effect1_dropShadow"/>
<feColorMatrix in="SourceAlpha" type="matrix" values="0 0 0 0 0 0 0 0 0 0 0 0 0 0 0 0 0 0 127 0"/>
<feOffset dy="1"/>
<feGaussianBlur stdDeviation="5"/>
<feColorMatrix type="matrix" values="0 0 0 0 0 0 0 0 0 0 0 0 0 0 0 0 0 0 0.12 0"/>
<feBlend mode="normal" in2="effect1_dropShadow" result="effect2_dropShadow"/>
<feColorMatrix in="SourceAlpha" type="matrix" values="0 0 0 0 0 0 0 0 0 0 0 0 0 0 0 0 0 0 127 0"/>
<feOffset dy="4"/>
<feGaussianBlur stdDeviation="2.5"/>
<feColorMatrix type="matrix" values="0 0 0 0 0 0 0 0 0 0 0 0 0 0 0 0 0 0 0.14 0"/>
<feBlend mode="normal" in2="effect2_dropShadow" result="effect3_dropShadow"/>
<feBlend mode="normal" in="SourceGraphic" in2="effect3_dropShadow" result="shape"/>
</filter>
</defs>
</svg>
