<svg width="24" height="24" viewBox="0 0 24 24" fill="none" xmlns="http://www.w3.org/2000/svg">
<path d="M10.0757 1.09067C11.2694 0.414116 12.7306 0.414115 13.9243 1.09067L17.22 2.95869L20.4856 4.87888C21.6684 5.57432 22.399 6.83979 22.4099 8.21179L22.44 12L22.4099 15.7882C22.399 17.1602 21.6684 18.4257 20.4856 19.1211L17.22 21.0413L13.9243 22.9093C12.7306 23.5859 11.2694 23.5859 10.0757 22.9093L6.78 21.0413L3.51437 19.1211C2.33164 18.4257 1.60102 17.1602 1.59011 15.7882L1.56 12L1.59011 8.21179C1.60102 6.83979 2.33164 5.57432 3.51437 4.87888L6.78 2.95869L10.0757 1.09067Z"/>
<path d="M11.9987 5.33203C8.3187 5.33203 5.33203 8.3187 5.33203 11.9987C5.33203 15.6787 8.3187 18.6654 11.9987 18.6654C15.6787 18.6654 18.6654 15.6787 18.6654 11.9987C18.6654 8.3187 15.6787 5.33203 11.9987 5.33203ZM10.6654 14.332V9.66536C10.6654 9.39203 10.9787 9.23203 11.1987 9.3987L14.312 11.732C14.492 11.8654 14.492 12.132 14.312 12.2654L11.1987 14.5987C10.9787 14.7654 10.6654 14.6054 10.6654 14.332Z" fill="white"/>
</svg>
