<svg width="24" height="24" viewBox="0 0 24 24" fill="none" xmlns="http://www.w3.org/2000/svg">
<path d="M12 3C10.22 3 8.47991 3.52784 6.99987 4.51677C5.51983 5.50571 4.36628 6.91131 3.68509 8.55585C3.0039 10.2004 2.82567 12.01 3.17294 13.7558C3.5202 15.5016 4.37737 17.1053 5.63604 18.364C6.89471 19.6226 8.49836 20.4798 10.2442 20.8271C11.99 21.1743 13.7996 20.9961 15.4442 20.3149C17.0887 19.6337 18.4943 18.4802 19.4832 17.0001C20.4722 15.5201 21 13.78 21 12C21 9.61305 20.0518 7.32387 18.364 5.63604C16.6761 3.94821 14.3869 3 12 3ZM16.533 8.12085L12.6689 17.3948C12.6325 17.4865 12.5693 17.565 12.4874 17.62C12.4055 17.675 12.3088 17.7038 12.2102 17.7026C12.0909 17.7048 11.9749 17.6636 11.8837 17.5867C11.7925 17.5099 11.7323 17.4025 11.7142 17.2846L11.0588 13.3523C11.0417 13.2495 10.9928 13.1546 10.9192 13.0809C10.8455 13.0072 10.7506 12.9584 10.6478 12.9413L6.71541 12.2859C6.60836 12.268 6.51002 12.2159 6.43524 12.1372C6.36045 12.0586 6.31328 11.9578 6.30084 11.8499C6.28841 11.7421 6.31139 11.6332 6.36631 11.5396C6.42124 11.446 6.50512 11.3728 6.6053 11.3311L15.8792 7.467C15.9706 7.428 16.0717 7.41726 16.1693 7.43615C16.2669 7.45505 16.3566 7.50272 16.4269 7.57302C16.4972 7.64333 16.5449 7.73307 16.5638 7.83069C16.5827 7.92831 16.572 8.02934 16.533 8.12081L16.533 8.12085Z" fill="#1976D2"/>
</svg>
