<svg width="24" height="24" viewBox="0 0 24 24" fill="none" xmlns="http://www.w3.org/2000/svg">
<path d="M15.6316 11.4737V5.15789L12.4737 2L9.31579 5.15789V7.26316H3V22H21.9474V11.4737H15.6316ZM7.21053 19.8947H5.10526V17.7895H7.21053V19.8947ZM7.21053 15.6842H5.10526V13.5789H7.21053V15.6842ZM7.21053 11.4737H5.10526V9.36842H7.21053V11.4737ZM13.5263 19.8947H11.4211V17.7895H13.5263V19.8947ZM13.5263 15.6842H11.4211V13.5789H13.5263V15.6842ZM13.5263 11.4737H11.4211V9.36842H13.5263V11.4737ZM13.5263 7.26316H11.4211V5.15789H13.5263V7.26316ZM19.8421 19.8947H17.7368V17.7895H19.8421V19.8947ZM19.8421 15.6842H17.7368V13.5789H19.8421V15.6842Z" fill="#1976D2"/>
</svg>
