<svg width="24" height="24" viewBox="0 0 24 24" fill="none" xmlns="http://www.w3.org/2000/svg">
<path d="M10.0757 1.09067C11.2694 0.414116 12.7306 0.414115 13.9243 1.09067L17.22 2.95869L20.4856 4.87888C21.6684 5.57432 22.399 6.83979 22.4099 8.21179L22.44 12L22.4099 15.7882C22.399 17.1602 21.6684 18.4257 20.4856 19.1211L17.22 21.0413L13.9243 22.9093C12.7306 23.5859 11.2694 23.5859 10.0757 22.9093L6.78 21.0413L3.51437 19.1211C2.33164 18.4257 1.60102 17.1602 1.59011 15.7882L1.56 12L1.59011 8.21179C1.60102 6.83979 2.33164 5.57432 3.51437 4.87888L6.78 2.95869L10.0757 1.09067Z" fill="#1976D2"/>
<path d="M11.9985 6C11.6318 6 11.3318 6.3 11.3318 6.66667V12C11.3318 12.3667 11.6318 12.6667 11.9985 12.6667C12.3652 12.6667 12.6652 12.3667 12.6652 12V6.66667C12.6652 6.3 12.3652 6 11.9985 6ZM15.4252 7.90667C15.1652 8.16667 15.1718 8.57333 15.4185 8.83333C16.1718 9.63333 16.6385 10.7 16.6652 11.88C16.7252 14.4333 14.6118 16.6333 12.0585 16.66C9.45182 16.7 7.33182 14.6 7.33182 12C7.33182 10.7733 7.80516 9.66 8.57849 8.82667C8.82516 8.56667 8.82516 8.16 8.57182 7.90667C8.30516 7.64 7.87182 7.64667 7.61849 7.92C6.65182 8.94667 6.04516 10.3133 5.99849 11.8267C5.90516 15.08 8.55182 17.8933 11.8052 17.9933C15.2052 18.1 17.9985 15.3733 17.9985 11.9933C17.9985 10.4133 17.3852 8.98667 16.3852 7.92C16.1318 7.64667 15.6918 7.64 15.4252 7.90667Z" fill="white"/>
</svg>
