<svg width="24" height="24" viewBox="0 0 24 24" fill="none" xmlns="http://www.w3.org/2000/svg">
<path d="M12 8.9C11.2767 8.9 10.583 9.17393 10.0715 9.66152C9.56006 10.1491 9.27273 10.8104 9.27273 11.5C9.27273 12.1896 9.56006 12.8509 10.0715 13.3385C10.583 13.8261 11.2767 14.1 12 14.1C12.7233 14.1 13.417 13.8261 13.9285 13.3385C14.4399 12.8509 14.7273 12.1896 14.7273 11.5C14.7273 10.8104 14.4399 10.1491 13.9285 9.66152C13.417 9.17393 12.7233 8.9 12 8.9ZM12 15.8333C10.7945 15.8333 9.63832 15.3768 8.78588 14.5641C7.93344 13.7515 7.45455 12.6493 7.45455 11.5C7.45455 10.3507 7.93344 9.24853 8.78588 8.43587C9.63832 7.62321 10.7945 7.16667 12 7.16667C13.2055 7.16667 14.3617 7.62321 15.2141 8.43587C16.0666 9.24853 16.5455 10.3507 16.5455 11.5C16.5455 12.6493 16.0666 13.7515 15.2141 14.5641C14.3617 15.3768 13.2055 15.8333 12 15.8333ZM12 5C7.45455 5 3.57273 7.69533 2 11.5C3.57273 15.3047 7.45455 18 12 18C16.5455 18 20.4273 15.3047 22 11.5C20.4273 7.69533 16.5455 5 12 5Z" fill="#1976D2"/>
</svg>
