<svg width="28" height="28" viewBox="0 0 28 28" fill="none" xmlns="http://www.w3.org/2000/svg">
<path fill-rule="evenodd" clip-rule="evenodd" d="M13.9987 25.6654C20.442 25.6654 25.6654 20.442 25.6654 13.9987C25.6654 7.55538 20.442 2.33203 13.9987 2.33203C7.55538 2.33203 2.33203 7.55538 2.33203 13.9987C2.33203 20.442 7.55538 25.6654 13.9987 25.6654ZM8.28026 14.8042C9.35415 14.8042 10.2247 13.9337 10.2247 12.8598C10.2247 11.7859 9.35415 10.9153 8.28026 10.9153C7.20637 10.9153 6.33582 11.7859 6.33582 12.8598C6.33582 13.9337 7.20637 14.8042 8.28026 14.8042ZM21.8147 12.8598C21.8147 13.9337 20.9441 14.8042 19.8702 14.8042C18.7963 14.8042 17.9258 13.9337 17.9258 12.8598C17.9258 11.7859 18.7963 10.9153 19.8702 10.9153C20.9441 10.9153 21.8147 11.7859 21.8147 12.8598ZM13.9983 21.6925C11.1391 21.6925 8.67536 19.9997 7.55452 17.5617H20.4421C19.3212 19.9997 16.8574 21.6925 13.9983 21.6925Z" fill="#1976D2"/>
</svg>
