<svg width="29" height="29" viewBox="0 0 29 29" fill="none" xmlns="http://www.w3.org/2000/svg">
<path d="M14.5013 2.41797C7.8313 2.41797 2.41797 7.8313 2.41797 14.5013C2.41797 21.1713 7.8313 26.5846 14.5013 26.5846C21.1713 26.5846 26.5846 21.1713 26.5846 14.5013C26.5846 7.8313 21.1713 2.41797 14.5013 2.41797ZM14.5013 6.04297C16.5071 6.04297 18.1263 7.66214 18.1263 9.66797C18.1263 11.6738 16.5071 13.293 14.5013 13.293C12.4955 13.293 10.8763 11.6738 10.8763 9.66797C10.8763 7.66214 12.4955 6.04297 14.5013 6.04297ZM14.5013 23.2013C11.4805 23.2013 8.81005 21.6546 7.2513 19.3105C7.28755 16.9059 12.0846 15.5888 14.5013 15.5888C16.9059 15.5888 21.7151 16.9059 21.7513 19.3105C20.1926 21.6546 17.5221 23.2013 14.5013 23.2013Z" fill="#E3F2FD"/>
</svg>
