<svg width="24" height="24" viewBox="0 0 24 24" fill="none" xmlns="http://www.w3.org/2000/svg">
<path d="M10.0757 1.09067C11.2694 0.414116 12.7306 0.414115 13.9243 1.09067L17.22 2.95869L20.4856 4.87888C21.6684 5.57432 22.399 6.83979 22.4099 8.21179L22.44 12L22.4099 15.7882C22.399 17.1602 21.6684 18.4257 20.4856 19.1211L17.22 21.0413L13.9243 22.9093C12.7306 23.5859 11.2694 23.5859 10.0757 22.9093L6.78 21.0413L3.51437 19.1211C2.33164 18.4257 1.60102 17.1602 1.59011 15.7882L1.56 12L1.59011 8.21179C1.60102 6.83979 2.33164 5.57432 3.51437 4.87888L6.78 2.95869L10.0757 1.09067Z" />
<path d="M18.1936 6.41902C15.8511 6.37702 13.1797 7.60149 11.4887 9.50094C9.87276 9.53144 8.2993 10.1939 7.14082 11.3524C7.07332 11.4189 7.04932 11.5184 7.07882 11.6084C7.10882 11.6989 7.18682 11.7644 7.28082 11.7779L9.20777 12.0539L8.96978 12.3204C8.88128 12.4194 8.88578 12.5699 8.97978 12.6639L12.1932 15.8773C12.2417 15.9258 12.3057 15.9503 12.3702 15.9503C12.4297 15.9503 12.4892 15.9293 12.5367 15.8868L12.8032 15.6488L13.0792 17.5758C13.0927 17.6698 13.1667 17.7387 13.2562 17.7687C13.2792 17.7762 13.3032 17.7797 13.3277 17.7797C13.3987 17.7797 13.4712 17.7487 13.5212 17.6993C14.6636 16.5568 15.3261 14.9833 15.3566 13.3674C17.2581 11.6729 18.4926 9.00246 18.4381 6.66301C18.4346 6.53001 18.3271 6.42252 18.1936 6.41902ZM15.8896 10.7349C15.6461 10.9784 15.3261 11.1004 15.0056 11.1004C14.6851 11.1004 14.3652 10.9784 14.1217 10.7349C13.6347 10.2474 13.6347 9.45444 14.1217 8.96696C14.6091 8.47947 15.4021 8.47947 15.8896 8.96696C16.3771 9.45444 16.3771 10.2479 15.8896 10.7349Z" fill="white"/>
<path d="M7.8034 14.8696C7.26842 15.4046 6.53393 17.8216 6.45193 18.0951C6.42544 18.1831 6.44993 18.2786 6.51443 18.3436C6.56243 18.3916 6.62593 18.4171 6.69143 18.4171C6.71543 18.4171 6.73943 18.4136 6.76343 18.4066C7.03692 18.3246 9.45387 17.5901 9.98885 17.0551C10.5913 16.4526 10.5913 15.4721 9.98885 14.8696C9.38587 14.2672 8.40589 14.2677 7.8034 14.8696Z" fill="white"/>
</svg>
