<svg width="24" height="24" viewBox="0 0 24 24" fill="none" xmlns="http://www.w3.org/2000/svg">
<path d="M18 12.9005H17.32L15.32 14.7004H17.23L19 16.5003H5L6.78 14.7004H8.83L6.83 12.9005H6L3 15.6003V19.2001C3 20.1901 3.89 21 4.99 21H19C20.1 21 21 20.1991 21 19.2001V15.6003L18 12.9005ZM17 8.3558L12.05 12.8105L8.51 9.62472L13.46 5.17L17 8.3558ZM12.76 3.26212L6.39 8.99476C6 9.34573 6 9.9127 6.39 10.2637L11.34 14.7184C11.73 15.0694 12.36 15.0694 12.75 14.7184L19.11 8.99476C19.5 8.64378 19.5 8.07682 19.11 7.72584L14.16 3.27112C13.78 2.91114 13.15 2.91114 12.76 3.26212Z" fill="#ffffff"/>
</svg>
