<svg width="25" height="25" viewBox="0 0 25 25" fill="none" xmlns="http://www.w3.org/2000/svg">
<path d="M17.6466 13.9858C17.6479 13.9837 17.6493 13.9818 17.6507 13.9797C17.662 13.9604 17.6457 13.9867 17.6466 13.9858Z" fill="#1976D2"/>
<path d="M17.6347 9.96747C17.6335 9.96523 17.6322 9.96318 17.6309 9.96094C17.6335 9.96555 17.6368 9.97132 17.6392 9.97561C17.6376 9.97291 17.6362 9.97021 17.6347 9.96747Z" fill="#1976D2"/>
<path d="M17.7489 4.22424C17.7649 4.20513 17.7326 4.2432 17.7489 4.22424V4.22424Z" fill="#1976D2"/>
<path d="M13.2969 17.3081C13.3082 17.3029 13.3055 17.3042 13.2969 17.3081V17.3081Z" fill="#1976D2"/>
<path d="M20.1203 2.77656C20.0732 2.68108 20.026 2.58555 19.9789 2.48998C19.8205 2.5728 19.6666 2.66459 19.5152 2.75963C19.4292 2.81375 19.3441 2.86945 19.2597 2.92619L19.1485 3.00215C19.114 2.95043 19.0795 2.89875 19.0452 2.84696L19.155 2.77844C19.2461 2.7226 19.3378 2.66778 19.4305 2.61491C19.5888 2.52449 19.7497 2.43756 19.9146 2.3601C19.8826 2.29515 19.8505 2.23021 19.8184 2.16531C19.7994 2.12674 19.7805 2.08829 19.7614 2.0498C19.7467 2.01993 19.7521 2.01258 19.7199 2.02439C19.4309 2.13014 19.148 2.2518 18.8714 2.38628C18.2038 2.71076 17.5551 3.10637 16.9955 3.59629C16.4147 4.10466 15.8995 4.69103 15.5474 5.38282C15.1945 6.07656 15.0107 6.83882 15.0035 7.61687C14.9999 8.00906 15.0525 8.39371 15.1256 8.77804C15.1997 9.16746 15.3328 9.53835 15.4696 9.90923C15.563 10.1768 15.7091 10.4238 15.8116 10.6881C15.8782 10.8601 15.927 11.0332 15.9689 11.2123C16.0076 11.3772 16.0156 11.5612 15.9968 11.7294C15.9784 11.8944 15.923 12.0376 15.8404 12.1802C15.7536 12.3297 15.6207 12.4592 15.4937 12.5748C15.3594 12.6972 15.215 12.8079 15.0648 12.9099C14.4242 13.3449 13.6939 13.6432 12.9633 13.8891C12.9398 13.8971 12.9161 13.9044 12.8925 13.9122L11.4024 17.0199C11.423 17.0129 11.4437 17.0064 11.4643 16.9994C11.826 16.8772 12.1858 16.7488 12.5415 16.6097C12.6941 16.5501 12.8458 16.4884 12.9973 16.4259C13.0097 16.4207 13.039 16.4079 13.039 16.4079C13.039 16.4079 13.0589 16.4562 13.0679 16.476C13.1458 16.6507 13.2236 16.8251 13.3015 16.9998C13.3337 17.0718 13.3659 17.1439 13.398 17.2159C13.4035 17.2283 13.409 17.2409 13.4146 17.2532C13.4148 17.2539 13.3061 17.3039 13.2837 17.3142C13.2888 17.3118 13.2936 17.3096 13.2974 17.3078C13.2935 17.3097 13.2881 17.3121 13.2798 17.316C12.6833 17.5926 12.0734 17.8407 11.4564 18.0673C11.2344 18.1488 11.0111 18.2268 10.7872 18.3032L9.01118 22.0071C9.28278 21.9077 9.55277 21.8041 9.82152 21.6991C10.5376 21.4189 11.245 21.1164 11.9415 20.7906C13.357 20.1287 14.7359 19.3721 16.0033 18.4548C17.2146 17.5731 18.3564 16.525 19.106 15.2123C19.4824 14.5532 19.7557 13.8249 19.8559 13.0703C19.9584 12.2993 19.8823 11.5102 19.6393 10.7716C19.4791 10.2846 19.2513 9.81385 18.9662 9.38718C18.8397 9.19773 18.7065 9.01537 18.5679 8.83481C18.4891 8.73246 18.4026 8.63603 18.3172 8.53916C18.189 8.39347 18.0834 8.22734 17.9784 8.06483C17.8004 7.7894 17.6691 7.47447 17.6034 7.15312C17.5224 6.75648 17.5487 6.35886 17.6515 5.96907C17.8487 5.22151 18.3174 4.55545 18.8344 3.99275C19.1522 3.64679 19.5011 3.32805 19.8721 3.0401C19.9461 2.98261 20.0212 2.92639 20.0973 2.87196C20.1567 2.82931 20.1505 2.83758 20.1203 2.77656ZM17.6711 13.9445C17.6711 13.9445 17.6632 13.9597 17.6509 13.9805C17.6481 13.9849 17.6471 13.9863 17.6469 13.9864C17.3154 14.4944 16.9245 14.9421 16.4682 15.3427C16.0382 15.7203 15.5699 16.0462 15.0877 16.3527C14.9438 16.11 14.7998 15.8672 14.6558 15.6244C15.2603 15.2748 15.848 14.8907 16.3574 14.4094C16.6083 14.1722 16.8308 13.9143 17.0318 13.6339L17.0791 13.5713L17.6711 13.9445ZM17.6296 9.96346C17.6248 9.95484 17.6224 9.95059 17.6334 9.96981C17.6436 9.98803 17.642 9.98533 17.6376 9.97771C17.9859 10.6032 18.2261 11.2956 18.2263 12.018C18.0175 12.0149 17.8086 12.0118 17.5997 12.0088C17.6236 11.4725 17.4816 10.9403 17.265 10.4534C17.1451 10.1839 16.9934 9.93054 16.8459 9.67555C16.7184 9.45546 16.6074 9.23096 16.4995 9.00083C16.5805 8.96386 16.6615 8.92688 16.7425 8.88998C16.7946 8.86627 16.9408 8.79891 16.9408 8.79891L16.9541 8.82652C17.051 9.01159 17.1506 9.191 17.2614 9.36809C17.3852 9.56602 17.5141 9.76067 17.6296 9.96346ZM17.7474 4.22266C17.3859 4.64277 17.0626 5.08719 16.8375 5.59678C16.6269 6.07375 16.5084 6.59103 16.5191 7.11325C16.3836 7.11189 16.2481 7.11053 16.1126 7.10921C16.1297 6.41368 16.3477 5.73884 16.7004 5.14152C16.8796 4.83792 17.0921 4.55835 17.3215 4.2912C17.3767 4.22683 17.436 4.16582 17.494 4.10399C17.5149 4.08181 17.5789 4.00999 17.5789 4.00999C17.5789 4.00999 17.7112 4.13707 17.7702 4.19302C17.771 4.19373 17.7716 4.19441 17.7724 4.19512C17.7636 4.20392 17.7554 4.21315 17.7474 4.22266Z" fill="#1976D2"/>
<path d="M13.2027 10.413C13.1904 7.61265 10.9022 5.34439 8.10192 5.35666C5.30163 5.36893 3.03342 7.65714 3.04568 10.4575C3.04928 11.2781 3.24856 12.0528 3.59863 12.7381L8.17514 22.0714L12.6704 12.6968C13.014 12.0089 13.2063 11.2329 13.2027 10.413ZM8.13648 13.2455C6.58681 13.2523 5.32052 11.9972 5.31373 10.4475C5.30694 8.89778 6.56222 7.63149 8.11186 7.6247C9.66149 7.61792 10.9278 8.8732 10.9346 10.4229C10.9414 11.9725 9.68611 13.2388 8.13648 13.2455Z" fill="#1976D2"/>
</svg>
