<svg width="24" height="24" viewBox="0 0 24 24" fill="none" xmlns="http://www.w3.org/2000/svg">
<path d="M10.0757 1.09067C11.2694 0.414116 12.7306 0.414115 13.9243 1.09067L17.22 2.95869L20.4856 4.87888C21.6684 5.57432 22.399 6.83979 22.4099 8.21179L22.44 12L22.4099 15.7882C22.399 17.1602 21.6684 18.4257 20.4856 19.1211L17.22 21.0413L13.9243 22.9093C12.7306 23.5859 11.2694 23.5859 10.0757 22.9093L6.78 21.0413L3.51437 19.1211C2.33164 18.4257 1.60102 17.1602 1.59011 15.7882L1.56 12L1.59011 8.21179C1.60102 6.83979 2.33164 5.57432 3.51437 4.87888L6.78 2.95869L10.0757 1.09067Z" fill="#1976D2"/>
<path d="M8.48307 7.17188H6.50391C6.28799 7.17188 6.11328 7.34659 6.11328 7.5625C6.11328 7.77841 6.28799 7.95312 6.50391 7.95312H8.48307C8.69898 7.95312 8.8737 7.77841 8.8737 7.5625C8.8737 7.34659 8.69898 7.17188 8.48307 7.17188Z" fill="white"/>
<path d="M8.48307 10.2969H6.50391C6.28799 10.2969 6.11328 10.4716 6.11328 10.6875C6.11328 10.9034 6.28799 11.0781 6.50391 11.0781H8.48307C8.69898 11.0781 8.8737 10.9034 8.8737 10.6875C8.8737 10.4716 8.69898 10.2969 8.48307 10.2969Z" fill="white"/>
<path d="M7.70182 8.73438H5.72266C5.50674 8.73438 5.33203 8.90909 5.33203 9.125C5.33203 9.34091 5.50674 9.51562 5.72266 9.51562H7.70182C7.91773 9.51562 8.09245 9.34091 8.09245 9.125C8.09245 8.90909 7.91773 8.73438 7.70182 8.73438Z" fill="white"/>
<path d="M17.8854 10.6881H15.5156V9.1256C15.5156 8.43951 14.6763 8.07826 14.1818 8.57347L11.057 11.6982C10.7518 12.0034 10.7518 12.4978 11.057 12.803L12.8484 14.5944L10.6664 16.7764C10.3612 17.0815 10.3612 17.5759 10.6664 17.8811C10.9715 18.1863 11.4659 18.1863 11.7711 17.8811L14.5055 15.1467C14.8107 14.8415 14.8107 14.3472 14.5055 14.042L12.7141 12.2506L13.9531 11.0116V11.4694C13.9531 11.9008 14.3029 12.2506 14.7344 12.2506H17.8854C18.3169 12.2506 18.6667 11.9008 18.6667 11.4694C18.6667 11.0379 18.3169 10.6881 17.8854 10.6881Z" fill="white"/>
<path d="M12.6287 6.71702C12.3182 6.51064 11.9062 6.55148 11.6429 6.81468L9.49451 8.96311C9.18933 9.2683 9.18933 9.76267 9.49451 10.0679C9.79969 10.373 10.2941 10.373 10.5993 10.0678L12.2949 8.3722L12.8661 8.78366L13.6293 8.02049C13.7569 7.89283 13.9075 7.79374 14.0722 7.71637L12.6287 6.71702Z" fill="white"/>
<path d="M10.5046 13.3534C10.3067 13.1555 10.1746 12.9119 10.1049 12.6484L5.97889 16.7744C5.6737 17.0796 5.6737 17.574 5.97889 17.8792C6.28404 18.1843 6.77844 18.1844 7.08363 17.8792L11.057 13.9058L10.5046 13.3534Z" fill="white"/>
<path d="M15.9062 8.34375C16.5535 8.34375 17.0781 7.81908 17.0781 7.17187C17.0781 6.52467 16.5535 6 15.9062 6C15.259 6 14.7344 6.52467 14.7344 7.17187C14.7344 7.81908 15.259 8.34375 15.9062 8.34375Z" fill="white"/>
</svg>
