<svg width="24" height="24" viewBox="0 0 24 24" fill="none" xmlns="http://www.w3.org/2000/svg">
<path fill-rule="evenodd" clip-rule="evenodd" d="M8.68408 14.7408L11.5261 12.0855C11.1567 12.0494 10.8819 12.0313 10.5788 12.0313C6.89509 11.909 3 14.233 3 15.6439C3 15.6439 4.24943 18.4338 7.61564 19.9105C9.853 20.892 11.9574 21.2315 14.1653 20.8426L8.68408 14.7408ZM10.5788 10.2251C12.6724 10.2251 14.3682 8.60847 14.3682 6.61254C14.3682 4.61661 12.6724 3 10.5788 3C8.48514 3 6.78939 4.61661 6.78939 6.61254C6.78939 8.60847 8.48514 10.2251 10.5788 10.2251Z" fill="#1976D2"/>
<path fill-rule="evenodd" clip-rule="evenodd" d="M14.8137 17.9028L11.5264 14.7418L12.8527 13.4684L14.8137 15.3469L19.6736 10.6777L20.9998 11.9512L14.8137 17.9028Z" fill="#1976D2"/>
</svg>
