<svg width="24" height="24" viewBox="0 0 24 24" fill="none" xmlns="http://www.w3.org/2000/svg">
<path d="M20.3636 10.2384L19.9187 9.05655L19.1298 6.96083C18.4525 5.16204 16.8371 4 15.0135 4H9.98646C8.16325 4 6.54746 5.16204 5.87019 6.96083L5.08129 9.05655L4.63637 10.2384C3.68162 10.624 3 11.5981 3 12.7479V14.7667C3 15.4446 3.24383 16.0566 3.63333 16.5301V18.8042C3.63333 19.5473 4.20056 20.15 4.9 20.15H6.16667C6.8661 20.15 7.43333 19.5473 7.43333 18.8042V17.4583H17.5667V18.8042C17.5667 19.5473 18.1339 20.15 18.8333 20.15H20.1C20.7994 20.15 21.3667 19.5473 21.3667 18.8042V16.5301C21.7562 16.057 22 15.445 22 14.7667V12.7479C22 11.5981 21.3184 10.624 20.3636 10.2384ZM8.22223 7.96053C8.51079 7.19425 9.20944 6.69167 9.98646 6.69167H15.0135C15.7906 6.69167 16.4892 7.19425 16.7778 7.96053L17.5667 10.0562H7.43333L8.22223 7.96053ZM6.16667 14.7583C5.40667 14.7583 4.9 14.2216 4.9 13.4166C4.9 12.6116 5.40667 12.075 6.16667 12.075C6.92667 12.075 8.06667 13.2825 8.06667 14.0874C8.06667 14.8924 6.92667 14.7583 6.16667 14.7583ZM18.8333 14.7583C18.0733 14.7583 16.9333 14.8924 16.9333 14.0874C16.9333 13.2825 18.0733 12.075 18.8333 12.075C19.5933 12.075 20.1 12.6116 20.1 13.4166C20.1 14.2216 19.5933 14.7583 18.8333 14.7583Z" fill="#1976D2"/>
</svg>
