<svg width="14" height="21" viewBox="0 0 14 21" fill="none" xmlns="http://www.w3.org/2000/svg">
<path d="M13.7376 6.03055C13.3635 3.1267 10.9543 0.840649 7.90071 0.492112C7.63779 0.46357 7.37341 0.449272 7.10876 0.449219C4.41015 0.453167 1.98029 2.00459 0.954082 4.37883C-0.0721272 6.75307 0.507829 9.48172 2.42307 11.2902C3.44154 12.218 4.0248 13.4966 4.04146 14.838V15.5707H10.1946V14.8342C10.1992 13.5182 10.762 12.2598 11.7554 11.3438C13.2559 9.96672 13.9898 7.99933 13.7376 6.03055Z" />
<path d="M7.11806 20.4492C7.76974 20.4485 8.35049 20.0579 8.56848 19.4737H5.66769C5.88563 20.0579 6.46637 20.4485 7.11806 20.4492Z"/>
<path d="M4.5538 18.0101C4.55419 18.2794 4.78352 18.4975 5.06657 18.4979H9.16866C9.45171 18.4975 9.68103 18.2794 9.68142 18.0101V16.5468H4.5538V18.0101Z"/>
</svg>
