<svg width="24" height="24" viewBox="0 0 24 24" fill="none" xmlns="http://www.w3.org/2000/svg">
<path d="M18.2845 7.58133C17.9104 4.67748 15.5011 2.39143 12.4476 2.04289C12.1847 2.01435 11.9203 2.00005 11.6556 2C8.95702 2.00395 6.52717 3.55537 5.50096 5.92961C4.47475 8.30385 5.0547 11.0325 6.96994 12.841C7.98841 13.7688 8.57168 15.0474 8.58833 16.3888V17.1215H14.7414V16.385C14.7461 15.069 15.3089 13.8105 16.3023 12.8946C17.8027 11.5175 18.5367 9.55011 18.2845 7.58133Z" />
<path d="M11.6649 22C12.3166 21.9993 12.8974 21.6087 13.1154 21.0244H10.2146C10.4325 21.6087 11.0132 21.9993 11.6649 22Z" />
<path d="M9.10067 19.5609C9.10107 19.8302 9.33039 20.0483 9.61344 20.0487H13.7155C13.9986 20.0483 14.2279 19.8302 14.2283 19.5609V18.0976H9.10067V19.5609Z" />
</svg>
