<svg width="36" height="36" viewBox="0 0 36 36" fill="none" xmlns="http://www.w3.org/2000/svg">
<rect width="36" height="36" rx="5" fill="#CAD6DE"/>
<path d="M23.586 19.9584C23.5873 19.9563 23.5888 19.9544 23.5902 19.9524C23.6015 19.9332 23.5851 19.9593 23.586 19.9584Z" fill="#FFFFFF"/>
<path d="M23.5898 15.9401C23.5886 15.9379 23.5872 15.9358 23.5859 15.9336C23.5886 15.9382 23.5918 15.944 23.5942 15.9483C23.5927 15.9456 23.5912 15.9429 23.5898 15.9401Z" fill="#FFFFFF"/>
<path d="M23.7313 10.1969C23.7474 10.1779 23.7149 10.2158 23.7313 10.1969V10.1969Z" fill="#FFFFFF"/>
<path d="M19.2227 23.2612C19.234 23.2561 19.2312 23.2573 19.2227 23.2612V23.2612Z" fill="#FFFFFF"/>
<path d="M26.1074 8.7592C26.0606 8.6635 26.0139 8.56777 25.9672 8.472C25.8084 8.55412 25.6541 8.64523 25.5023 8.73961C25.416 8.79335 25.3307 8.84868 25.2461 8.90505L25.1345 8.98052C25.1003 8.92865 25.066 8.87683 25.0319 8.82488L25.1421 8.75685C25.2333 8.7014 25.3253 8.64699 25.4183 8.59452C25.5769 8.5048 25.7382 8.41858 25.9035 8.34183C25.8717 8.27675 25.8399 8.21167 25.8081 8.14662C25.7893 8.10797 25.7705 8.06944 25.7516 8.03087C25.737 8.00093 25.7425 7.99361 25.7102 8.00527C25.4207 8.10976 25.1373 8.23018 24.8601 8.36345C24.1912 8.685 23.5407 9.07777 22.979 9.56523C22.396 10.071 21.8782 10.6552 21.5231 11.3454C21.1671 12.0376 20.98 12.799 20.9693 13.577C20.964 13.9692 21.0149 14.3541 21.0864 14.7387C21.1587 15.1285 21.2902 15.5 21.4254 15.8714C21.5176 16.1394 21.6627 16.387 21.764 16.6518C21.8299 16.8241 21.8778 16.9974 21.919 17.1767C21.957 17.3418 21.9641 17.5258 21.9446 17.6939C21.9255 17.8588 21.8695 18.0018 21.7863 18.1439C21.6988 18.2931 21.5654 18.4221 21.4379 18.5371C21.303 18.6589 21.1582 18.7689 21.0075 18.8703C20.365 19.3025 19.6334 19.5976 18.9017 19.8403C18.8781 19.8482 18.8545 19.8554 18.8309 19.8631L17.3271 22.9642C17.3478 22.9573 17.3685 22.9509 17.3891 22.944C17.7514 22.8234 18.1116 22.6966 18.4679 22.559C18.6208 22.5 18.7728 22.4391 18.9246 22.3772C18.9371 22.3721 18.9664 22.3594 18.9664 22.3594C18.9664 22.3594 18.9861 22.4077 18.9949 22.4276C19.0721 22.6026 19.1491 22.7774 19.2263 22.9524C19.2581 23.0246 19.29 23.0969 19.3218 23.1689C19.3273 23.1814 19.3327 23.194 19.3383 23.2064C19.3385 23.207 19.2296 23.2566 19.2071 23.2667C19.2122 23.2644 19.2171 23.2622 19.2209 23.2604C19.2169 23.2623 19.2115 23.2647 19.2032 23.2685C18.6055 23.5426 17.9945 23.7879 17.3765 24.0118C17.1541 24.0924 16.9305 24.1694 16.7063 24.2448L14.9141 27.9408C15.1861 27.8427 15.4565 27.7403 15.7257 27.6364C16.443 27.3594 17.1518 27.0599 17.8497 26.7373C19.2681 26.0815 20.6503 25.331 21.9217 24.4192C23.1368 23.5428 24.2832 22.4998 25.0386 21.1904C25.4178 20.5329 25.6943 19.8058 25.7978 19.0517C25.9037 18.2811 25.8311 17.4917 25.5913 16.752C25.4332 16.2644 25.2075 15.7926 24.9243 15.3647C24.7986 15.1747 24.6662 14.9917 24.5284 14.8106C24.4501 14.7079 24.3639 14.6111 24.279 14.5138C24.1514 14.3676 24.0466 14.201 23.9423 14.038C23.7655 13.7618 23.6355 13.4463 23.5713 13.1247C23.492 12.7277 23.5201 12.3302 23.6246 11.9409C23.825 11.1942 24.2966 10.5302 24.8161 9.96974C25.1354 9.62518 25.4857 9.30796 25.858 9.02164C25.9322 8.96448 26.0075 8.90859 26.0839 8.85449C26.1435 8.8121 26.1372 8.82034 26.1074 8.7592ZM23.6092 19.9163C23.6092 19.9163 23.6012 19.9314 23.5889 19.9522C23.586 19.9566 23.5851 19.9579 23.5848 19.9581C23.2511 20.4646 22.8582 20.9107 22.4002 21.3092C21.9686 21.6849 21.4988 22.0088 21.0153 22.3132C20.8724 22.0699 20.7295 21.8264 20.5866 21.583C21.1926 21.236 21.782 20.8545 22.2935 20.3754C22.5454 20.1393 22.769 19.8824 22.9712 19.6029L23.0189 19.5405L23.6092 19.9163ZM23.5852 15.9351C23.5804 15.9265 23.578 15.9222 23.5889 15.9415C23.5991 15.9598 23.5975 15.957 23.5931 15.9494C23.9386 16.5764 24.1758 17.2698 24.1729 17.9922C23.964 17.9883 23.7551 17.9842 23.5463 17.9803C23.5726 17.4441 23.4329 16.9113 23.2184 16.4235C23.0997 16.1534 22.9491 15.8994 22.8027 15.6438C22.6762 15.4231 22.5662 15.1981 22.4593 14.9675C22.5405 14.9309 22.6216 14.8943 22.7028 14.8578C22.755 14.8343 22.9014 14.7676 22.9014 14.7676L22.9146 14.7952C23.0107 14.9807 23.1095 15.1606 23.2195 15.3381C23.3425 15.5366 23.4705 15.7318 23.5852 15.9351ZM23.7281 10.1949C23.3648 10.6134 23.0395 11.0564 22.8122 11.565C22.5995 12.041 22.4787 12.5578 22.4871 13.0801C22.3517 13.0781 22.2162 13.0762 22.0807 13.0743C22.1008 12.3788 22.3218 11.7049 22.6771 11.1091C22.8576 10.8063 23.0713 10.5277 23.3019 10.2616C23.3574 10.1974 23.4169 10.1367 23.4752 10.0751C23.4962 10.053 23.5605 9.98148 23.5605 9.98148C23.5605 9.98148 23.6923 10.1091 23.751 10.1653C23.7518 10.1661 23.7524 10.1667 23.7532 10.1675C23.7444 10.1762 23.7361 10.1854 23.7281 10.1949Z" fill="#FFFFFF"/>
<path d="M19.1571 16.3638C19.1571 13.5634 16.8789 11.2852 14.0785 11.2852C11.2782 11.2852 9 13.5634 9 16.3638C9 17.1844 9.19589 17.96 9.54295 18.6468L14.0785 28.0001L18.6148 18.6453C18.9615 17.9589 19.1571 17.1837 19.1571 16.3638ZM14.0785 19.1741C12.5288 19.1741 11.2681 17.9134 11.2681 16.3637C11.2681 14.814 12.5289 13.5532 14.0785 13.5532C15.6282 13.5532 16.889 14.814 16.889 16.3637C16.889 17.9134 15.6282 19.1741 14.0785 19.1741Z" fill="#FFFFFF"/>
</svg>
