<svg width="36" height="36" viewBox="0 0 36 36" fill="none" xmlns="http://www.w3.org/2000/svg">
<rect width="36" height="36" rx="5" fill="#CAD6DE"/>
<path d="M18 9C16.22 9 14.4799 9.52784 12.9999 10.5168C11.5198 11.5057 10.3663 12.9113 9.68509 14.5558C9.0039 16.2004 8.82567 18.01 9.17294 19.7558C9.5202 21.5016 10.3774 23.1053 11.636 24.364C12.8947 25.6226 14.4984 26.4798 16.2442 26.8271C17.99 27.1743 19.7996 26.9961 21.4442 26.3149C23.0887 25.6337 24.4943 24.4802 25.4832 23.0001C26.4722 21.5201 27 19.78 27 18C27 15.6131 26.0518 13.3239 24.364 11.636C22.6761 9.94821 20.3869 9 18 9ZM22.533 14.1208L18.6689 23.3948C18.6325 23.4865 18.5693 23.565 18.4874 23.62C18.4055 23.675 18.3088 23.7038 18.2102 23.7026C18.0909 23.7048 17.9749 23.6636 17.8837 23.5867C17.7925 23.5099 17.7323 23.4025 17.7142 23.2846L17.0588 19.3523C17.0417 19.2495 16.9928 19.1546 16.9192 19.0809C16.8455 19.0072 16.7506 18.9584 16.6478 18.9413L12.7154 18.2859C12.6084 18.268 12.51 18.2159 12.4352 18.1372C12.3604 18.0586 12.3133 17.9578 12.3008 17.8499C12.2884 17.7421 12.3114 17.6332 12.3663 17.5396C12.4212 17.446 12.5051 17.3728 12.6053 17.3311L21.8792 13.467C21.9706 13.428 22.0717 13.4173 22.1693 13.4362C22.2669 13.455 22.3566 13.5027 22.4269 13.573C22.4972 13.6433 22.5449 13.7331 22.5638 13.8307C22.5827 13.9283 22.572 14.0293 22.533 14.1208L22.533 14.1208Z" fill="#FFFFFF"/>
</svg>
