<svg width="36" height="36" viewBox="0 0 36 36" fill="none" xmlns="http://www.w3.org/2000/svg">
<rect width="36" height="36" rx="5" fill="#CAD6DE"/>
<path d="M17.99 8C12.47 8 8 12.48 8 18C8 23.52 12.47 28 17.99 28C23.52 28 28 23.52 28 18C28 12.48 23.52 8 17.99 8ZM14.5 14C15.33 14 16 14.67 16 15.5C16 16.33 15.33 17 14.5 17C13.67 17 13 16.33 13 15.5C13 14.67 13.67 14 14.5 14ZM18 24C15.72 24 13.78 22.34 13 20H23C22.22 22.34 20.28 24 18 24ZM21.5 17C20.67 17 20 16.33 20 15.5C20 14.67 20.67 14 21.5 14C22.33 14 23 14.67 23 15.5C23 16.33 22.33 17 21.5 17Z" fill="#FFFFFF"/>
</svg>
