<svg width="36" height="36" viewBox="0 0 36 36" fill="none" xmlns="http://www.w3.org/2000/svg">
<rect width="36" height="36" rx="5" fill="#CAD6DE"/>
<path d="M24 18.9005H23.32L21.32 20.7004H23.23L25 22.5003H11L12.78 20.7004H14.83L12.83 18.9005H12L9 21.6003V25.2001C9 26.1901 9.89 27 10.99 27H25C26.1 27 27 26.1991 27 25.2001V21.6003L24 18.9005ZM23 14.3558L18.05 18.8105L14.51 15.6247L19.46 11.17L23 14.3558ZM18.76 9.26212L12.39 14.9948C12 15.3457 12 15.9127 12.39 16.2637L17.34 20.7184C17.73 21.0694 18.36 21.0694 18.75 20.7184L25.11 14.9948C25.5 14.6438 25.5 14.0768 25.11 13.7258L20.16 9.27112C19.78 8.91114 19.15 8.91114 18.76 9.26212Z" fill="#FFFFFF"/>
</svg>
